<?xml version="1.0" standalone="no"?>
<!DOCTYPE svg PUBLIC "-//W3C//DTD SVG 20010904//EN"
 "http://www.w3.org/TR/2001/REC-SVG-20010904/DTD/svg10.dtd">
<svg version="1.0" xmlns="http://www.w3.org/2000/svg"
 width="700.000000pt" height="700.000000pt" viewBox="0 0 700.000000 700.000000"
 preserveAspectRatio="xMidYMid meet">
<metadata>
Created by potrace 1.14, written by Peter Selinger 2001-2017
</metadata>
<g transform="translate(0.000000,700.000000) scale(0.100000,-0.100000)"
fill="#000000" stroke="none">
<path d="M3119 6996 c-2 -2 -31 -7 -64 -10 -129 -13 -148 -16 -310 -51 -210
-46 -430 -129 -588 -222 -76 -45 -215 -140 -241 -166 -7 -6 -33 -30 -57 -52
-120 -111 -234 -264 -312 -421 -45 -89 -111 -270 -122 -332 -3 -18 -11 -59
-19 -90 -18 -79 -4 -127 49 -164 39 -27 60 -32 235 -53 62 -8 204 -26 240 -30
19 -3 53 -7 75 -9 22 -2 76 -9 120 -15 254 -35 277 -36 315 -16 55 28 78 65
114 180 68 213 181 346 375 439 151 72 380 92 531 47 205 -63 324 -181 381
-378 10 -35 18 -67 18 -71 0 -4 3 -32 7 -62 8 -64 11 -460 4 -465 -3 -2 -45
-6 -95 -9 -49 -4 -108 -9 -130 -11 -22 -2 -74 -7 -115 -10 -41 -3 -88 -7 -105
-9 -16 -3 -61 -7 -100 -11 -71 -6 -94 -9 -200 -25 -33 -5 -78 -12 -100 -15
-41 -6 -152 -25 -282 -50 -205 -39 -466 -130 -668 -232 -460 -233 -750 -645
-812 -1154 -10 -84 -10 -407 0 -484 73 -537 381 -917 861 -1064 38 -12 81 -23
95 -26 14 -2 51 -9 81 -15 74 -15 187 -24 290 -23 84 0 273 11 307 17 10 2 41
7 68 10 361 48 653 203 978 520 54 53 102 94 106 92 4 -3 21 -24 37 -48 135
-201 285 -374 427 -495 65 -56 161 -72 224 -39 22 11 262 211 413 343 26 23
41 36 129 111 30 26 66 58 81 72 15 14 45 42 68 62 58 52 74 81 74 131 0 66
-33 121 -178 300 -8 9 -14 20 -14 23 0 3 -14 26 -31 50 -38 56 -91 172 -111
244 -41 146 -41 150 -43 1250 -1 586 -5 1090 -9 1120 -3 30 -9 78 -12 105 -2
28 -7 61 -10 75 -2 14 -6 36 -9 49 -31 162 -94 322 -180 451 -45 67 -63 88
-150 173 -127 124 -306 234 -505 310 -106 41 -241 83 -293 91 -18 3 -40 8 -48
10 -17 6 -52 13 -144 27 -38 5 -83 12 -100 15 -37 7 -540 16 -546 10z m751
-2658 c7 -9 4 -518 -4 -603 -18 -194 -58 -327 -152 -502 -80 -149 -146 -228
-256 -306 -79 -56 -108 -70 -188 -96 -253 -79 -483 -6 -613 193 -50 76 -75
146 -102 281 -7 37 -7 250 0 288 3 15 7 37 9 50 51 290 250 501 584 618 107
37 299 65 517 75 72 4 131 7 132 8 6 5 69 0 73 -6z"/>
<path d="M6255 2050 c-119 -18 -152 -22 -183 -25 -125 -13 -425 -156 -506
-241 -51 -54 -65 -127 -36 -185 36 -69 97 -88 226 -69 43 6 95 14 114 16 19 3
46 7 60 9 126 21 465 26 513 7 24 -10 27 -16 27 -59 0 -96 -67 -338 -167 -608
-49 -132 -55 -178 -27 -226 39 -66 104 -91 184 -69 87 23 267 237 365 430 70
140 137 356 163 525 4 28 7 104 6 170 0 104 -4 126 -24 168 -37 77 -93 110
-245 144 -77 17 -384 25 -470 13z"/>
<path d="M115 1783 c-107 -37 -147 -159 -82 -249 19 -28 177 -168 297 -264 24
-19 48 -40 54 -45 6 -6 56 -47 111 -91 772 -621 1457 -964 2160 -1083 109 -19
121 -21 156 -25 174 -22 516 -28 724 -13 192 14 427 48 635 91 14 3 50 11 80
17 223 45 689 197 908 295 29 13 55 24 57 24 13 0 302 145 409 205 221 124
455 279 514 342 96 102 73 251 -49 318 -80 43 -158 31 -334 -50 -130 -61 -535
-207 -765 -275 -183 -55 -572 -151 -675 -166 -16 -3 -52 -9 -80 -14 -110 -21
-286 -46 -385 -55 -36 -4 -76 -8 -90 -11 -67 -11 -277 -19 -480 -19 -241 1
-325 7 -550 40 -88 13 -106 16 -225 41 -517 106 -1110 350 -1865 766 -302 167
-420 227 -450 231 -19 2 -53 -2 -75 -10z"/>
</g>
</svg>
